<svg width="278" height="63" viewBox="0 0 278 63" fill="none" xmlns="http://www.w3.org/2000/svg">
<path d="M65.5807 42.3882L79.2168 11.692C79.4411 11.1857 79.8106 10.7552 80.2795 10.4533C80.7484 10.1515 81.2965 9.99161 81.856 9.99318H90.3456L104.65 42.3969C104.681 42.4639 104.695 42.5376 104.69 42.6112C104.685 42.6848 104.66 42.7558 104.619 42.8175C104.578 42.8793 104.522 42.9297 104.456 42.964C104.39 42.9984 104.316 43.0155 104.241 43.0139H97.797C97.7113 43.0142 97.6272 42.9896 97.5551 42.9433C97.4834 42.897 97.4267 42.8309 97.3924 42.7532L94.5332 36.6617C94.498 36.5848 94.4412 36.5196 94.3695 36.4741C94.2974 36.4286 94.2138 36.4047 94.1285 36.4054H76.1729C76.0875 36.4047 76.0039 36.4286 75.9318 36.4741C75.8601 36.5196 75.8034 36.5848 75.7682 36.6617L72.909 42.7401C72.8747 42.8179 72.8179 42.884 72.7462 42.9303C72.6741 42.9766 72.5901 43.0011 72.5043 43.0008H65.9898C65.9155 43.0021 65.8424 42.9849 65.7769 42.9508C65.7114 42.9167 65.6555 42.8667 65.6146 42.8057C65.5737 42.7445 65.5495 42.6742 65.5433 42.6012C65.5376 42.5282 65.5504 42.455 65.5807 42.3882ZM79.2168 30.5486H91.1286C91.202 30.5496 91.2746 30.5323 91.3397 30.4984C91.4048 30.4645 91.4602 30.415 91.5007 30.3545C91.5416 30.294 91.5662 30.2244 91.5728 30.152C91.579 30.0797 91.5671 30.0068 91.5376 29.9403L85.5818 15.8848C85.5483 15.8047 85.4916 15.7363 85.419 15.6884C85.346 15.6404 85.2602 15.6149 85.1727 15.6154C85.0851 15.6149 84.9994 15.6404 84.9263 15.6884C84.8538 15.7363 84.797 15.8047 84.7636 15.8848L78.8077 29.9403C78.78 30.005 78.7686 30.0754 78.7743 30.1454C78.78 30.2155 78.8029 30.2831 78.8411 30.3425C78.879 30.4019 78.9309 30.4513 78.9929 30.4864C79.0545 30.5215 79.1235 30.5414 79.1948 30.5442L79.2168 30.5486Z" fill="#353535"/>
<path d="M107.77 53.0068C107.653 53.0068 107.541 52.9612 107.458 52.8795C107.376 52.7978 107.329 52.687 107.329 52.5719V22.3788C107.338 21.7357 107.606 21.1227 108.073 20.6741C108.54 20.2255 109.168 19.9782 109.82 19.9863H122.749C126.94 19.9863 130.211 20.9766 132.562 22.9573C134.913 24.9379 135.921 27.7219 135.921 31.4743C135.921 35.2587 134.913 38.2239 132.562 40.2046C130.211 42.1852 126.94 43.0015 122.749 43.0015H114.373V52.5719C114.373 52.687 114.327 52.7978 114.244 52.8795C114.162 52.9612 114.049 53.0068 113.932 53.0068H107.77ZM122.749 25.1627H114.373V37.9948H122.749C124.785 37.9948 126.343 37.4627 127.422 36.3984C128.5 35.3342 129.039 33.7204 129.039 31.557C129.039 29.4255 128.5 27.8306 127.422 26.7721C126.343 25.7136 124.785 25.1772 122.749 25.1627Z" fill="#353535"/>
<path d="M152.012 43.0138C147.919 43.0138 144.727 42.0235 142.436 40.0428C140.145 38.062 139 35.15 139 31.3066C139 27.4344 140.145 24.5065 142.436 22.5228C144.727 20.5393 147.919 19.5489 152.012 19.5518H157.219C161.312 19.5518 164.504 20.5421 166.795 22.5228C169.086 24.5036 170.231 27.4315 170.231 31.3066C170.231 35.15 169.086 38.062 166.795 40.0428C164.504 42.0235 161.312 43.0138 157.219 43.0138H152.012ZM152.012 37.8749H157.219C159.203 37.8749 160.722 37.3394 161.774 36.2684C162.828 35.1974 163.357 33.5435 163.363 31.3066C163.363 29.0408 162.835 27.371 161.779 26.2972C160.723 25.2233 159.205 24.6878 157.223 24.6907H152.017C150.029 24.6907 148.509 25.2262 147.457 26.2972C146.404 27.3682 145.877 29.0379 145.877 31.3066C145.877 33.5406 146.404 35.1946 147.457 36.2684C148.509 37.3423 150.028 37.8749 152.012 37.8663V37.8749Z" fill="#353535"/>
<path d="M212.275 43.0138C208.182 43.0138 204.99 42.0235 202.699 40.0428C200.408 38.062 199.263 35.15 199.263 31.3066C199.263 27.4344 200.408 24.5065 202.699 22.5228C204.99 20.5393 208.182 19.5489 212.275 19.5518H217.481C221.574 19.5518 224.767 20.5421 227.057 22.5228C229.348 24.5036 230.494 27.4315 230.494 31.3066C230.494 35.15 229.348 38.062 227.057 40.0428C224.767 42.0235 221.574 43.0138 217.481 43.0138H212.275ZM212.275 37.8749H217.481C219.466 37.8749 220.985 37.3394 222.037 36.2684C223.09 35.1974 223.619 33.5435 223.626 31.3066C223.626 29.0408 223.097 27.371 222.042 26.2972C220.986 25.2233 219.467 24.6878 217.486 24.6907H212.279C210.292 24.6907 208.772 25.2262 207.719 26.2972C206.666 27.3682 206.14 29.0379 206.14 31.3066C206.14 33.5406 206.666 35.1946 207.719 36.2684C208.772 37.3423 210.291 37.8749 212.275 37.8663V37.8749Z" fill="#353535"/>
<path d="M188.266 43.0139C188.149 43.0139 188.037 42.9683 187.955 42.8873C187.872 42.8062 187.826 42.6963 187.826 42.5817V12.3724C187.855 11.7135 188.15 11.0931 188.645 10.6475C189.14 10.2018 189.794 9.96732 190.465 9.99543H194.864V42.5817C194.864 42.6963 194.818 42.8062 194.735 42.8873C194.653 42.9683 194.541 43.0139 194.424 43.0139H188.266Z" fill="#353535"/>
<path d="M175.07 43.0139C174.953 43.0139 174.841 42.9683 174.759 42.8873C174.676 42.8062 174.63 42.6963 174.63 42.5817V12.3724C174.659 11.7135 174.954 11.0931 175.449 10.6475C175.944 10.2018 176.598 9.96732 177.269 9.99543H181.668V42.5817C181.668 42.6963 181.621 42.8062 181.539 42.8873C181.456 42.9683 181.344 43.0139 181.228 43.0139H175.07Z" fill="#353535"/>
<path d="M233.133 43.0139L242.73 27.249C242.972 26.8914 243.103 26.4571 243.103 26.0108C243.103 25.5646 242.972 25.1304 242.73 24.7727L233.133 9.99316H240.611L248.767 22.2576C248.938 22.523 249.164 22.7396 249.427 22.8899C249.689 23.0401 249.98 23.1196 250.275 23.1219H250.749C251.044 23.1196 251.335 23.0401 251.597 22.8899C251.859 22.7396 252.085 22.523 252.257 22.2576L260.412 9.99316H267.883L258.294 24.7727C258.05 25.1298 257.919 25.5643 257.919 26.0108C257.919 26.4574 258.05 26.8919 258.294 27.249L267.883 43.0139H260.362L252.245 30.7926C252.071 30.5318 251.844 30.3196 251.582 30.1733C251.32 30.0269 251.03 29.9504 250.737 29.9499H250.263C249.969 29.9504 249.68 30.0269 249.418 30.1733C249.156 30.3196 248.929 30.5318 248.755 30.7926L240.638 43.0139H233.133Z" fill="#353535"/>
<path fill-rule="evenodd" clip-rule="evenodd" d="M51.2523 19.7909C48.0816 26.9969 42.8954 33.1563 36.3045 37.5437C29.7136 41.9311 21.9926 44.3638 14.0509 44.5549C12.4073 42.1383 11.2609 39.4251 10.6772 36.5703C10.0935 33.7154 10.0839 30.7748 10.6489 27.9162C11.214 25.0577 12.3426 22.3372 13.9703 19.9102C15.5981 17.4832 17.6931 15.3971 20.1358 13.7711C22.5785 12.1451 25.321 11.0109 28.2067 10.4335C31.0924 9.85598 34.0648 9.84647 36.9543 10.4054C39.8437 10.9644 42.5936 12.081 45.047 13.6913C47.5001 15.3017 49.6089 17.3743 51.2523 19.7909ZM52.7122 19.6528V16.9028C52.7126 16.8743 52.7201 16.8463 52.7346 16.8218C52.7487 16.7974 52.7689 16.7773 52.7936 16.7636L55.1909 15.3712C55.2146 15.3571 55.2415 15.3497 55.2687 15.3497C55.296 15.3498 55.3228 15.3572 55.3466 15.3713C55.3699 15.3854 55.3897 15.4057 55.4033 15.4301C55.417 15.4546 55.424 15.4823 55.424 15.5104V18.2604C55.4236 18.2886 55.4165 18.3161 55.4029 18.3405C55.3893 18.3649 55.3699 18.3853 55.3462 18.3997L52.9453 19.7921C52.9216 19.8062 52.8947 19.8135 52.8675 19.8135C52.8402 19.8135 52.8134 19.806 52.7896 19.7919C52.7663 19.7778 52.7465 19.7575 52.7329 19.7331C52.7192 19.7087 52.7122 19.681 52.7122 19.6528ZM50.7842 44.9143C53.5075 41.1478 54.9718 36.6328 54.9718 32.0018C54.9731 28.5888 54.1735 25.2222 52.6365 22.1667C45.6329 31.1198 41.1939 41.7723 39.7849 53.0069C44.2147 51.5106 48.061 48.6812 50.7842 44.9143Z" fill="#353535"/>
</svg>
