<svg width="58" height="58" viewBox="0 0 58 58" fill="none" xmlns="http://www.w3.org/2000/svg">
<rect width="58" height="58" rx="10" fill="#3D5AF1"/>
<path fill-rule="evenodd" clip-rule="evenodd" d="M12.0684 19.4624L28.7151 13.8953L44.9119 19.4624V21.7346L30.2898 27.3017L28.0528 31.0162L30.4024 31.9601L45.0245 26.393V29.915L30.2899 35.4821L29.7275 35.2549L26.3273 33.8811L22.0789 40.9354L18.5921 39.572L12.0684 19.4624ZM24.733 29.6825L20.5043 27.9836L21.8541 32.0737L23.1847 32.6114L21.0666 36.6181L16.1176 21.621L28.7151 17.4173L38.5007 20.7121L27.2529 24.9158L24.733 29.6825ZM45.0237 34.5736L30.2891 40.1407V43.6627L45.0237 38.0956V34.5736Z" fill="white"/>
</svg>
