<svg width="72" height="62" viewBox="0 0 72 62" fill="none" xmlns="http://www.w3.org/2000/svg">
<path d="M33.9236 46.4652C33.9236 45.3108 32.9629 44.435 31.8121 44.425C28.3697 44.3852 26.2382 40.6632 27.9694 37.6876L30.0309 34.1348L34.0737 27.1685C34.9343 25.6957 37.0757 25.6957 37.9363 27.1685L41.9792 34.1348L44.0406 37.6876C45.7718 40.6632 43.6303 44.3753 40.1979 44.425C39.0371 44.4449 38.0865 45.3108 38.0865 46.4652C38.0865 55.0437 45.0813 61.99 53.6973 61.99H72C66.6263 45.5297 52.3163 18.8886 35.995 0C21.0446 17.8138 9.17637 37.9663 0.890619 59.6613L0 62H18.3027C26.9287 62 33.9136 55.0437 33.9136 46.4751L33.9236 46.4652Z" fill="#0092FF"/>
</svg>
