<svg width="151" height="28" viewBox="0 0 151 28" fill="none" xmlns="http://www.w3.org/2000/svg">
<path d="M15.3203 20.9843C15.3203 20.4629 14.8865 20.0674 14.3668 20.0629C12.8121 20.0449 11.8495 18.364 12.6314 17.0202L13.5623 15.4157L15.3881 12.2697C15.7768 11.6045 16.7439 11.6045 17.1325 12.2697L18.9583 15.4157L19.8893 17.0202C20.6711 18.364 19.704 20.0404 18.1539 20.0629C17.6297 20.0719 17.2003 20.4629 17.2003 20.9843C17.2003 24.8584 20.3593 27.9955 24.2504 27.9955H32.5161C30.0893 20.5618 23.6267 8.53034 16.2558 0C9.50402 8.04494 4.14417 17.1461 0.402215 26.9438L0 28H8.26574C12.1613 28 15.3158 24.8584 15.3158 20.9888L15.3203 20.9843Z" fill="white"/>
<path d="M63.1061 23.754H58.0461C58.0461 23.358 58.0461 22.962 58.0461 22.588C56.8361 23.314 54.9001 23.974 52.6341 23.974C49.2461 23.974 44.5161 23.842 44.5161 19.816C44.5161 17 48.4761 15.988 52.5461 15.988C54.7461 15.988 56.3081 16.362 57.4961 16.802C56.8581 14.932 55.4941 14.668 52.7001 14.668C48.5201 14.668 46.1881 15.548 46.1661 15.57L45.0001 12.094C45.1101 12.05 48.3221 10.686 53.0081 10.686C55.5161 10.686 60.7521 11.038 62.1381 14.162C63.0401 16.274 63.1061 19.64 63.1061 23.754ZM53.2281 20.762C55.5381 20.762 57.4741 20.124 57.6941 19.772C57.6941 19.662 57.6941 19.64 57.6941 19.552C57.5621 19.42 57.1881 18.958 53.4701 18.958C50.9841 18.958 50.0601 19.244 50.0601 19.816C50.0601 20.63 51.7101 20.762 53.2281 20.762Z" fill="white"/>
<path d="M73.7961 8.332C81.8701 8.332 83.7401 9.454 83.7401 13.92C83.7401 13.92 79.1641 13.92 78.284 13.92C78.284 13.128 77.9761 12.666 73.9281 12.666C70.0121 12.666 69.6821 12.842 69.6821 13.414C69.7261 13.832 70.0121 13.854 73.8841 14.162C82.4421 14.866 84.2901 14.976 84.2901 18.958C84.2901 22.918 82.7941 23.732 73.9501 23.732C65.8101 23.732 64.556 22.94 64.556 18.43C64.556 18.43 69.1981 18.43 69.8581 18.43C69.8581 19.354 70.2321 19.574 74.1701 19.574C77.8881 19.574 78.3061 19.596 78.3061 18.892C78.3061 18.408 77.8441 18.496 73.7961 18.166C67.5261 17.66 64.3361 17.352 64.3361 13.37C64.3361 8.794 66.9981 8.332 73.7961 8.332Z" fill="white"/>
<path d="M107.593 10.994H112.851L107.263 23.732H102.313L98.573 16.824L94.833 23.732H89.883L84.295 10.994H89.663L92.611 18.452L96.593 10.994H100.465L104.403 18.276L107.593 10.994Z" fill="white"/>
<path d="M130.696 23.754H125.636C125.636 23.358 125.636 22.962 125.636 22.588C124.426 23.314 122.49 23.974 120.224 23.974C116.836 23.974 112.106 23.842 112.106 19.816C112.106 17 116.066 15.988 120.136 15.988C122.336 15.988 123.898 16.362 125.086 16.802C124.448 14.932 123.084 14.668 120.29 14.668C116.11 14.668 113.778 15.548 113.756 15.57L112.59 12.094C112.7 12.05 115.912 10.686 120.598 10.686C123.106 10.686 128.342 11.038 129.728 14.162C130.63 16.274 130.696 19.64 130.696 23.754ZM120.818 20.762C123.128 20.762 125.064 20.124 125.284 19.772C125.284 19.662 125.284 19.64 125.284 19.552C125.152 19.42 124.778 18.958 121.06 18.958C118.574 18.958 117.65 19.244 117.65 19.816C117.65 20.63 119.3 20.762 120.818 20.762Z" fill="white"/>
<path d="M131.69 28V11.06H136.816V12.732C137.916 11.94 139.72 11.06 142.624 11.06C146.43 11.06 150.786 11.742 150.786 17.594C150.786 21.818 146.958 23.754 142.734 23.754C139.962 23.754 137.52 22.852 136.816 22.126V28H131.69ZM141.876 19.992C141.876 19.992 145.308 20.08 145.308 17.44C145.308 15.218 143.658 14.844 141.04 14.844C138.972 14.844 137.322 15.592 136.816 16.362V18.43C138.092 20.102 141.876 19.992 141.876 19.992Z" fill="white"/>
</svg>
