<svg xmlns="http://www.w3.org/2000/svg" width="98" height="98" viewBox="0 0 98 98" fill="none">
<g filter="url(#filter0_d_478_4269)">
<rect x="16" y="16" width="58" height="58" rx="20" fill="#3D5AF1"/>
</g>
<path fill-rule="evenodd" clip-rule="evenodd" d="M28.0685 35.4626L44.7152 29.8955L60.912 35.4626V37.7349L46.2899 43.302L44.0529 47.0164L46.4025 47.9603L61.0246 42.3933V45.9153L46.29 51.4824L45.7276 51.2552L42.3275 49.8814L38.079 56.9357L34.5922 55.5723L28.0685 35.4626ZM40.7332 45.6827L36.5044 43.9839L37.8542 48.074L39.1848 48.6116L37.0667 52.6183L32.1177 37.6213L44.7152 33.4175L54.5008 36.7124L43.253 40.9161L40.7332 45.6827ZM61.0238 50.5738L46.2892 56.1409V59.663L61.0238 54.0959V50.5738Z" fill="white"/>
<defs>
<filter id="filter0_d_478_4269" x="0" y="0" width="98" height="98" filterUnits="userSpaceOnUse" color-interpolation-filters="sRGB">
<feFlood flood-opacity="0" result="BackgroundImageFix"/>
<feColorMatrix in="SourceAlpha" type="matrix" values="0 0 0 0 0 0 0 0 0 0 0 0 0 0 0 0 0 0 127 0" result="hardAlpha"/>
<feOffset dx="4" dy="4"/>
<feGaussianBlur stdDeviation="10"/>
<feComposite in2="hardAlpha" operator="out"/>
<feColorMatrix type="matrix" values="0 0 0 0 0 0 0 0 0 0 0 0 0 0 0 0 0 0 0.15 0"/>
<feBlend mode="normal" in2="BackgroundImageFix" result="effect1_dropShadow_478_4269"/>
<feBlend mode="normal" in="SourceGraphic" in2="effect1_dropShadow_478_4269" result="shape"/>
</filter>
</defs>
</svg>